<svg width="1440" height="1943" viewBox="0 0 1440 1943" fill="none" xmlns="http://www.w3.org/2000/svg">
<path fill-rule="evenodd" clip-rule="evenodd" d="M1018.41 1834.84C929.818 1977.24 973.438 2164.49 1115.84 2253.09C1258.24 2341.68 1445.49 2298.06 1534.09 2155.66C1622.68 2013.26 1579.06 1826 1436.66 1737.41C1294.26 1648.82 1107 1692.44 1018.41 1834.84ZM800.194 1227.11C611.206 1109.53 553.315 861.013 670.89 672.025C763.589 523.024 937.682 455.512 1099.82 491.237C1164.56 505.499 1237.71 489.025 1272.73 432.742C1306.89 377.839 1288.76 306.383 1261.45 247.769C1229.72 179.636 1231.93 97.3315 1274.6 28.7508C1341.76 -79.2048 1483.72 -112.274 1591.68 -45.1116C1699.64 22.051 1732.7 164.012 1665.54 271.968C1634.5 321.867 1587.47 355.767 1535.21 371.165C1468.35 390.866 1395.52 414.765 1358.69 473.953C1317.08 540.84 1332.52 626.658 1369.31 696.311C1434.06 818.881 1433.78 971.612 1355.27 1097.8C1237.7 1286.79 989.181 1344.68 800.194 1227.11ZM134.163 2079.54C-71.9287 1951.32 -135.059 1680.31 -6.84322 1474.22C121.373 1268.13 392.382 1205 598.474 1333.22C804.566 1461.43 867.696 1732.44 739.48 1938.53C611.264 2144.63 340.254 2207.76 134.163 2079.54ZM91.8566 420.379C130.575 358.144 114.635 277.503 96.7972 206.411C82.1389 147.993 90.2818 83.9299 124.61 28.7509C191.773 -79.2047 333.734 -112.274 441.69 -45.1114C549.646 22.0512 582.715 164.013 515.552 271.968C483.959 322.75 435.816 356.961 382.446 371.965C300.082 395.119 205.008 417.888 159.813 490.534L157.401 494.412C130.062 538.355 133.178 598.81 105.84 642.753C79.3915 685.265 23.4878 698.287 -19.0244 671.839C-61.5368 645.391 -74.5593 589.487 -48.111 546.975C-47.5741 546.112 -47.0253 545.261 -46.4645 544.423C-12.7213 493.965 59.7917 471.919 91.8566 420.379ZM30.1436 1070.72C-31.7918 1032.19 -50.7641 950.742 -12.2321 888.807C26.2997 826.872 107.745 807.9 169.68 846.431C231.615 884.963 250.587 966.408 212.056 1028.34C173.524 1090.28 92.0788 1109.25 30.1436 1070.72Z" fill="url(#paint0_linear)" fill-opacity="0.15"/>
<defs>
<linearGradient id="paint0_linear" x1="1538.13" y1="803.887" x2="853.744" y2="378.109" gradientUnits="userSpaceOnUse">
<stop stop-color="#7F7FD5"/>
<stop offset="1" stop-color="#E786D7"/>
</linearGradient>
</defs>
</svg>
