<svg width="126" height="204" viewBox="0 0 126 204" fill="none" xmlns="http://www.w3.org/2000/svg">
<path d="M124.984 100.602C124.984 155.972 99.7991 199.651 68.7848 200.857C28.3397 202.43 -24.5201 162.174 12.5859 100.602C41.179 53.1564 37.747 0.34729 68.7848 0.34729C99.8226 0.34729 124.984 45.233 124.984 100.602Z" fill="#F2F2F2"/>
<path d="M74.2138 172.293C74.2138 172.293 76.5843 182.59 80.277 184.809C83.9696 187.028 71.2641 191.236 71.2641 191.236C71.2641 191.236 65.7343 194.658 64.2979 195.896C62.8616 197.133 56.7059 199.78 57.7206 197.814C58.7352 195.848 60.5178 192.109 63.3325 189.003C66.1472 185.896 69.8477 180.335 66.6242 176.004C63.4006 171.673 74.2138 172.293 74.2138 172.293Z" fill="#FFB9B9"/>
<path d="M49.5041 144.177C21.7735 133.999 18.112 113.878 25.5391 93.4421C32.9663 73.0058 48.6697 59.9928 76.4003 70.1707C104.131 80.3487 125.961 130.3 125.961 130.3C125.961 130.3 77.2347 154.355 49.5041 144.177Z" fill="#8525EF" fill-opacity="0.3"/>
<path d="M60.0457 136.997C60.0457 136.997 65.0602 138.105 64.2171 141.959C63.374 145.812 69.4534 150.818 70.0303 151.66C70.6072 152.501 71.4504 152.856 70.9179 154.14C70.3854 155.425 83.2988 173.542 80.725 175.181C78.1512 176.82 57.2945 183.243 55.4307 181.959C53.5669 180.674 52.0581 138.636 52.0581 138.636L60.0457 136.997Z" fill="#272637"/>
<path d="M52.8854 204C80.5325 204 102.945 201.608 102.945 198.657C102.945 195.707 80.5325 193.315 52.8854 193.315C25.2383 193.315 2.82587 195.707 2.82587 198.657C2.82587 201.608 25.2383 204 52.8854 204Z" fill="#3F3D56"/>
<path d="M95.8585 132.307C96.0549 134.292 94.9411 135.102 93.4826 135.246C92.0241 135.389 90.7731 134.813 90.5767 132.827C90.3802 130.842 92.7712 128.056 92.7712 128.056C92.7712 128.056 95.662 130.321 95.8585 132.307Z" fill="#8525EF"/>
<path d="M75.3654 126.61C74.3039 128.3 72.9265 128.26 71.6848 127.483C70.443 126.706 69.807 125.486 70.8685 123.795C71.9301 122.105 75.529 121.362 75.529 121.362C75.529 121.362 76.427 124.919 75.3654 126.61Z" fill="#8525EF"/>
<path opacity="0.1" d="M61.3771 47.0304L60.1346 46.5874C60.1346 46.5874 56.9395 46.1445 54.0107 49.8654C51.0819 53.5863 44.3811 64.882 44.3811 64.882L41.8961 70.7292L50.6825 70.995L57.2945 56.4656L61.3771 47.0304Z" fill="black"/>
<path d="M48.6411 182.712C48.6411 182.712 45.5348 192.811 47.6205 196.577C49.7062 200.342 36.5955 197.642 36.5955 197.642C36.5955 197.642 30.0925 197.845 28.2287 198.199C26.3649 198.554 19.7081 197.773 21.5719 196.577C23.4356 195.381 26.8526 193.033 30.8464 191.748C34.8402 190.464 40.831 187.496 40.2097 182.136C39.5884 176.776 48.6411 182.712 48.6411 182.712Z" fill="#FFB9B9"/>
<path d="M42.8279 81.759C44.5471 80.5332 46.6177 79.896 48.7299 79.9428C52.1469 80.0757 63.3296 82.7335 63.019 83.2651C62.7124 83.7329 62.3713 84.1771 61.9983 84.594C61.9983 84.594 62.7083 87.8277 62.3977 88.1378C62.0871 88.4478 68.4772 95.7568 64.7496 111.438C61.022 127.119 61.4214 137.972 61.4214 137.972C61.4214 137.972 62.9302 183.952 58.6257 184.882C54.3213 185.812 37.3697 185.192 36.5709 183.376C35.7721 181.56 39.0116 125.17 39.0116 125.17C39.0116 125.17 39.3666 96.82 40.2097 93.3648C41.0529 89.9096 42.8279 81.759 42.8279 81.759Z" fill="#2F2E41"/>
<path d="M62.3755 41.7369C68.282 41.7369 73.0701 36.9573 73.0701 31.0614C73.0701 25.1655 68.282 20.3859 62.3755 20.3859C56.4691 20.3859 51.6809 25.1655 51.6809 31.0614C51.6809 36.9573 56.4691 41.7369 62.3755 41.7369Z" fill="#FFB9B9"/>
<path d="M60.7558 38.1268C60.7558 38.1268 67.3678 44.5941 59.2026 49.5997C53.4532 53.1243 73.0923 46.8533 73.0923 46.8533C73.0923 46.8533 69.0097 36.4435 69.631 34.0515C70.2522 31.6595 60.7558 38.1268 60.7558 38.1268Z" fill="#FFB9B9"/>
<path d="M62.3978 48.2264C62.3978 48.2264 71.5836 44.0182 73.0923 45.5243C74.6011 47.0304 81.1244 53.2319 74.0242 64.2176C66.9241 75.2032 65.5484 83.4424 64.3503 84.3726C63.1522 85.3028 62.3978 83.1766 62.3978 83.1766C62.3978 83.1766 58.9365 80.0315 56.6733 80.0315C54.4101 80.0315 44.7362 81.0946 44.7362 81.0946L47.4431 70.3748C47.4431 70.3748 46.1119 61.9141 50.6382 57.7059C55.1645 53.4977 60.1346 46.5874 60.1346 46.5874L62.6977 46.12L61.0053 48.2715C61.0053 48.2715 60.7559 48.9351 62.3978 48.2264Z" fill="#FF6584"/>
<path opacity="0.1" d="M41.2748 71.6152C41.2748 71.6152 37.3254 76.9308 39.9435 78.9241C42.5617 80.9175 48.0643 77.5067 48.0643 77.5067C48.0643 77.5067 60.7558 86.3217 60.5783 81.139C60.4008 75.9563 51.3038 72.3682 51.3038 72.3682L45.1799 72.5454L46.1118 69.4889L43.538 69.2231L41.2748 71.6152Z" fill="black"/>
<path d="M67.7672 61.3826C67.7672 61.3826 42.828 80.5631 41.2304 73.83C40.1922 69.4541 40.9908 58.6793 41.6772 51.6714C42.1679 46.5689 44.4506 41.8041 48.1217 38.2199C49.6179 36.7648 51.0058 35.8518 51.7032 36.5321C53.6557 38.4368 47.1324 46.0559 47.1324 46.0559C47.1324 46.0559 46.0674 61.5155 48.1974 63.2873C48.1974 63.2873 55.9143 55.8492 57.5141 55.9581C59.1139 56.067 67.7672 61.3826 67.7672 61.3826Z" fill="#FFB9B9"/>
<path d="M84.2864 41.0438C82.2434 37.9739 80.5566 33.0364 78.7364 28.6879C78.1465 27.2786 77.6076 25.8508 77.0799 24.4171C76.0163 21.5275 71.3859 17.7976 65.3216 17.7976C58.3903 17.7976 52.7714 21.2794 52.7714 24.2007C52.7714 26.616 56.6137 28.6517 61.8615 29.285C60.0178 33.393 58.907 37.9521 58.907 41.0438C58.907 48.0396 64.5884 45.0805 71.5967 45.0805C78.6051 45.0805 88.1644 46.871 84.2864 41.0438Z" fill="#2F2E41"/>
</svg>
