<svg width="530" height="505" viewBox="0 0 530 505" fill="none" xmlns="http://www.w3.org/2000/svg">
<path opacity="0.5" d="M256.472 387.964C251.762 423.621 252.802 459.91 299.711 457.426C305.656 457.111 312.593 456.049 321.055 452.21C343.33 442.124 363.983 419.043 386.722 407.404C409.462 395.764 428.114 398.656 449.364 382.528C454.917 378.311 459.267 373.671 462.751 369.349C484.554 342.289 476.03 326.516 459.483 319.703C442.935 312.891 419.14 311.539 411.18 298.403C403.58 285.746 411.605 263.624 417.027 243.386C426.231 209.222 426.301 176.774 387.976 175.794C370.413 175.347 346.325 181.652 326.984 182.99C301.08 184.681 284.549 177.384 279.834 162.177C276.743 151.986 279.048 138.592 278.57 126.842C277.475 100.161 262.062 82.2696 246.752 64.6703C243.902 61.3948 240.986 58.0809 235.438 56.9061C227.189 55.1913 213.968 58.2535 201.084 61.3103C184.164 65.3196 165.757 69.9514 145.237 81.7539C120.886 95.7749 99.8681 116.585 89.142 133.183C78.4158 149.781 76.0403 163.09 73.822 176.008C73.2918 179.184 72.8289 182.504 75.8405 183.277C77.8254 183.778 81.0877 183.09 84.4408 182.159C103.686 176.802 132.667 163.401 134.34 173.239C134.94 176.75 131.334 182.481 128.075 187.865C110.7 216.588 102.261 244.808 127.133 247.491C145.327 249.451 177.779 237.152 195.087 239.926C207.407 241.894 210.466 251.236 217.602 257.37C227.964 266.304 247.242 268.585 255.033 279.335C274.9 306.747 216.539 381.854 245.307 402.887C247.556 404.539 250.826 405.771 256.788 403.587" fill="#8525EF"/>
<g clip-path="url(#clip0)">
<path opacity="0.5" d="M115.026 420.148C87.0006 411.236 54.9572 403.692 28.7734 416.499C25.4549 418.123 22.185 420.166 20.397 423.207C15.6743 431.207 23.181 441.581 19.5224 450.038C15.8638 458.494 2.09411 462.751 3.22134 471.784C3.51772 474.145 4.90732 476.282 6.54471 478.125C16.8015 489.657 35.6048 490.825 51.4978 487.963C67.3907 485.101 82.9338 479.167 99.1134 479.913C114.661 480.651 128.965 487.515 143.211 493.293C167.228 503.059 195.278 510.067 219.275 500.251C230.27 495.752 239.361 488.092 249.885 482.744C264.067 475.603 280.37 472.85 296.383 474.892C307.072 476.278 317.276 479.766 327.736 482.172C351.496 487.632 376.295 487.453 400.778 487.238C405.335 487.198 409.966 487.149 414.334 485.95C420.801 484.162 426.136 480.043 431.271 476.014C438.02 470.724 445.128 464.911 447.305 457C449.875 447.609 444.555 437.628 436.664 431.247C428.774 424.866 418.687 421.378 408.843 418.015C406.414 417.192 403.819 416.356 401.332 416.978C399.699 417.389 398.324 418.391 397.105 419.469C390.118 425.658 384.214 436.126 374.686 434.445C371.285 433.845 368.501 431.668 365.81 429.655C351.437 418.923 332.104 410.637 314.759 416.566C302.073 420.904 293.118 432.043 280.262 435.974C271.118 438.773 261.181 437.561 251.561 438.107C237.568 438.894 223.949 443.446 209.936 443.169C174.205 442.462 144.436 411.017 108.85 414.013C106.061 414.246 103.02 414.836 101.31 416.866" fill="#8525EF"/>
<path d="M69.9658 390.237C69.9658 390.237 40.274 406.733 95.0271 432.141C95.0271 432.141 107.091 411.527 93.7542 394.717C91.1659 391.442 87.3625 389.155 83.0642 388.288C78.766 387.421 74.2715 388.034 70.4322 390.013L69.9658 390.237Z" fill="#8525EF"/>
<path d="M70.3206 389.892C70.3206 389.892 95.7415 407.779 95.0321 432.128" stroke="#535461" stroke-miterlimit="10"/>
<path d="M445.619 376.495C451.634 396.739 425.975 454.411 425.975 454.411C425.975 454.411 371.985 416.79 365.965 396.546C364.39 391.693 363.886 386.598 364.481 381.563C365.075 376.527 366.758 371.651 369.429 367.222C372.101 362.794 375.707 358.901 380.036 355.773C384.366 352.645 389.33 350.346 394.639 349.009C399.948 347.672 405.493 347.325 410.95 347.989C416.406 348.653 421.663 350.314 426.412 352.874C431.161 355.434 435.306 358.843 438.604 362.898C441.901 366.954 444.285 371.575 445.614 376.491L445.619 376.495Z" fill="#8525EF"/>
<path opacity="0.1" d="M445.619 376.495C451.634 396.739 425.975 454.411 425.975 454.411C425.975 454.411 371.985 416.79 365.965 396.546C364.39 391.693 363.886 386.598 364.481 381.563C365.075 376.527 366.758 371.651 369.429 367.222C372.101 362.794 375.707 358.901 380.036 355.773C384.366 352.645 389.33 350.346 394.639 349.009C399.948 347.672 405.493 347.325 410.95 347.989C416.406 348.653 421.663 350.314 426.412 352.874C431.161 355.434 435.306 358.843 438.604 362.898C441.901 366.954 444.285 371.575 445.614 376.491L445.619 376.495Z" fill="black"/>
<path d="M395.117 349.982C395.117 349.982 428.725 396.676 426.213 454.523" stroke="#535461" stroke-miterlimit="10"/>
<path d="M454.195 413.494C454.195 413.494 423.721 398.237 427.579 454.559C427.579 454.559 453 453.722 462.022 434.637C463.786 430.925 464.01 426.746 462.649 422.893C461.289 419.04 458.44 415.78 454.642 413.731L454.195 413.494Z" fill="#8525EF"/>
<path d="M454.695 413.593C454.695 413.593 450.76 442.829 427.579 454.559" stroke="#535461" stroke-miterlimit="10"/>
<path d="M8.04582 407.216C8.04582 407.216 -21.6605 423.708 33.0975 449.103C33.0975 449.103 45.1617 428.488 31.8245 411.679C29.2363 408.404 25.4328 406.116 21.1346 405.249C16.8363 404.382 12.3419 404.996 8.50254 406.975L8.04582 407.216Z" fill="#8525EF"/>
<path d="M8.38617 406.872C8.38617 406.872 33.8071 424.759 33.0977 449.107" stroke="#535461" stroke-miterlimit="10"/>
<path d="M378.705 428.685H347.487C348.206 427.355 348.578 425.89 348.576 424.405V293.58C348.576 291.029 347.475 288.582 345.515 286.778C343.555 284.974 340.896 283.961 338.124 283.961H96.4849C93.7131 283.961 91.0548 284.974 89.0948 286.778C87.1348 288.582 86.0337 291.029 86.0337 293.58V424.41C86.0312 425.895 86.4038 427.36 87.1221 428.689H54.8018C54.4375 428.689 54.0768 428.756 53.7404 428.884C53.404 429.013 53.0986 429.202 52.8417 429.439C52.5848 429.677 52.3815 429.959 52.2434 430.269C52.1053 430.58 52.0352 430.912 52.0371 431.247V433.3C52.0371 437.074 53.666 440.693 56.5654 443.361C59.4648 446.03 63.3973 447.529 67.4977 447.529H366.009C370.109 447.529 374.042 446.03 376.941 443.361C379.84 440.693 381.469 437.074 381.469 433.3V431.247C381.472 430.912 381.402 430.579 381.264 430.268C381.127 429.957 380.923 429.675 380.666 429.437C380.409 429.198 380.104 429.009 379.767 428.88C379.43 428.751 379.069 428.685 378.705 428.685ZM186.352 436.824L183.66 434.029H250.118L247.154 436.828L186.352 436.824Z" fill="url(#paint0_linear)"/>
<path d="M334.291 285.812H100.294C94.0525 285.812 88.9927 290.469 88.9927 296.213V422.08C88.9927 427.824 94.0525 432.481 100.294 432.481H334.291C340.533 432.481 345.592 427.824 345.592 422.08V296.213C345.592 290.469 340.533 285.812 334.291 285.812Z" fill="#535461"/>
<path d="M339.65 307.192H94.3955V427.012H339.65V307.192Z" fill="white"/>
<path d="M217.025 298.74C218.219 298.74 219.187 297.849 219.187 296.75C219.187 295.651 218.219 294.76 217.025 294.76C215.831 294.76 214.863 295.651 214.863 296.75C214.863 297.849 215.831 298.74 217.025 298.74Z" fill="white"/>
<path d="M254.889 427.259L246.464 435.214H187.061L179.448 427.259H58.47C57.7535 427.259 57.0664 427.52 56.5598 427.987C56.0532 428.453 55.7686 429.085 55.7686 429.745V431.748C55.7686 435.437 57.3606 438.974 60.1944 441.582C63.0282 444.19 66.8716 445.655 70.8792 445.655H362.627C364.611 445.655 366.576 445.296 368.41 444.597C370.243 443.898 371.909 442.873 373.312 441.582C374.715 440.291 375.828 438.758 376.587 437.07C377.347 435.383 377.738 433.575 377.738 431.748V429.745C377.738 429.085 377.453 428.453 376.946 427.987C376.44 427.52 375.753 427.259 375.036 427.259H254.889Z" fill="#535461"/>
<path d="M125.73 314.651V416.571H308.855" stroke="#535461" stroke-width="2" stroke-miterlimit="10"/>
<path opacity="0.5" d="M160.839 385.747H141.933V412.596H160.839V385.747Z" fill="#8525EF"/>
<path opacity="0.7" d="M193.251 361.881H174.346V412.596H193.251V361.881Z" fill="#8525EF"/>
<path opacity="0.5" d="M225.664 376.298H206.759V412.591H225.664V376.298Z" fill="#8525EF"/>
<path opacity="0.8" d="M258.077 353.926H239.171V412.596H258.077V353.926Z" fill="#8525EF"/>
<path d="M290.489 333.043H271.584V412.591H290.489V333.043Z" fill="#8525EF"/>
<path d="M151.116 369.34L184.068 341.995L216.481 367.846L248.354 336.526L280.767 324.095" stroke="#535461" stroke-width="2" stroke-miterlimit="10"/>
<path d="M151.117 372.819C153.204 372.819 154.897 371.261 154.897 369.34C154.897 367.419 153.204 365.861 151.117 365.861C149.029 365.861 147.336 367.419 147.336 369.34C147.336 371.261 149.029 372.819 151.117 372.819Z" fill="#8525EF"/>
<path d="M215.942 370.829C218.029 370.829 219.722 369.272 219.722 367.35C219.722 365.429 218.029 363.871 215.942 363.871C213.854 363.871 212.162 365.429 212.162 367.35C212.162 369.272 213.854 370.829 215.942 370.829Z" fill="#8525EF"/>
<path d="M248.894 340.005C250.981 340.005 252.674 338.448 252.674 336.526C252.674 334.605 250.981 333.047 248.894 333.047C246.806 333.047 245.114 334.605 245.114 336.526C245.114 338.448 246.806 340.005 248.894 340.005Z" fill="#8525EF"/>
<path d="M184.068 344.973C186.156 344.973 187.849 343.416 187.849 341.494C187.849 339.573 186.156 338.015 184.068 338.015C181.981 338.015 180.288 339.573 180.288 341.494C180.288 343.416 181.981 344.973 184.068 344.973Z" fill="#8525EF"/>
<path d="M280.767 327.574C282.855 327.574 284.547 326.016 284.547 324.095C284.547 322.173 282.855 320.616 280.767 320.616C278.679 320.616 276.987 322.173 276.987 324.095C276.987 326.016 278.679 327.574 280.767 327.574Z" fill="#8525EF"/>
<path d="M421.403 431.614C419.411 431.01 416.457 430.313 414.115 430.558C411.885 429.812 406.642 427.875 403.062 424.96C403.165 422.093 403.085 419.223 402.823 416.365C400.992 397.195 405.112 384.557 405.112 384.557C405.112 384.557 408.348 374.916 407.993 366.916C408.202 367.279 408.319 367.493 408.319 367.493C408.601 360.593 411.156 353.452 413.071 349.002C413.144 348.983 413.215 348.959 413.284 348.931L415.422 344.262C415.593 343.99 415.728 343.7 415.825 343.399L416.17 342.662L416.068 342.621C416.102 342.501 416.136 342.371 416.17 342.241C417.536 336.924 418.6 324.314 418.6 324.314C422.263 311.042 413.566 302.849 413.566 302.849L398.805 291.16C398.879 291.312 398.928 291.474 398.951 291.639L398.83 291.54C398.621 290.99 398.392 290.333 398.169 289.582C398.689 289.238 399.177 288.853 399.626 288.432C401.305 286.974 402.459 285.078 402.935 282.999C403.221 281.374 403.295 279.722 403.154 278.08L402.911 272.441C402.9 271.338 402.778 270.238 402.547 269.155C401.434 264.683 396.454 261.553 391.454 261.347C389.863 261.339 388.273 261.416 386.692 261.58C385.4 261.677 384.102 261.703 382.805 261.656C382.658 261.663 382.512 261.627 382.388 261.553C382.275 261.449 382.211 261.31 382.208 261.164C382.182 260.902 382.215 260.638 382.303 260.388C382.392 260.139 382.535 259.908 382.723 259.71C382.918 259.552 383.146 259.432 383.393 259.357L383.039 259.433C383.213 259.306 383.411 259.208 383.622 259.142C382.326 259.352 381.079 259.768 379.939 260.372C379.625 260.562 379.336 260.786 379.079 261.038C378.399 261.587 377.958 262.343 377.835 263.167C377.226 262.694 376.772 262.075 376.523 261.378C376.446 261.094 376.446 260.796 376.523 260.511C376.436 260.609 376.351 260.711 376.27 260.815C376.27 260.784 376.27 260.752 376.27 260.721C375.331 261.783 374.667 263.028 374.327 264.361C374.196 264.217 374.098 264.05 374.038 263.87C373.978 263.69 373.957 263.502 373.977 263.315C373.904 263.525 373.836 263.735 373.773 263.945C373.751 263.806 373.751 263.664 373.773 263.525C373.201 265.137 372.943 266.829 373.01 268.524C373.01 270.215 373.827 272.848 375.794 273.443C375.896 273.474 375.998 273.497 376.105 273.519C374.999 275.101 374.336 276.912 374.176 278.787C374.017 280.663 374.366 282.546 375.192 284.268C376.017 285.989 377.294 287.495 378.908 288.65C380.522 289.806 382.422 290.574 384.438 290.887C384.47 291.093 384.501 291.309 384.53 291.536H384.608C384.662 291.983 384.705 292.475 384.734 292.976C384.238 293.424 383.694 293.825 383.112 294.174C381.46 295.073 379.617 295.634 377.709 295.82C375.43 295.984 373.215 296.594 371.213 297.609C368.856 298.82 366.257 300.587 365.44 302.733C364.08 306.311 356.588 311.878 351.564 312.571L349.776 312.477L349.645 312.441V312.473L349.207 312.45H349.183H349.066V312.473L348.615 312.45C348.615 312.45 348.571 312.643 348.508 312.982C345.981 312.182 340.612 309.964 333.625 304.128C325.851 297.631 315.332 298.91 311.275 299.728C311.137 299.756 311.012 299.822 310.915 299.918C310.819 300.013 310.757 300.133 310.737 300.262C310.717 300.391 310.74 300.522 310.803 300.638C310.866 300.755 310.967 300.851 311.09 300.913C312.728 301.74 315.264 302.943 316.435 303.078C316.435 303.078 314.006 305.416 316.591 306.655C316.901 306.793 317.246 306.85 317.589 306.819C317.932 306.788 318.259 306.671 318.534 306.481C319.788 305.635 323.271 307.549 328.32 308.546C328.32 308.546 342.565 322.114 349.64 324.198C349.803 324.494 349.983 324.782 350.179 325.061L350.616 325.029V325.061H350.801L350.854 325.508C350.854 325.508 361.855 324.976 365.431 321.3C365.684 321.091 365.916 320.862 366.125 320.616L362.302 364.886H362.336L362.302 365.307H365.115C365.356 370.751 365.1 376.205 364.352 381.611V410.471C364.352 410.471 364.206 413.011 369.94 416.732C375.951 420.584 381.744 424.716 387.295 429.114L387.99 429.669C386.935 438.5 384.73 454.961 382.888 455.574L384.025 455.757C382.082 458.024 376.562 464.253 374.881 464.419C372.821 464.629 371.446 467.58 374.881 468.211C381.74 469.303 388.792 468.664 395.288 466.359C395.935 466.124 396.479 465.696 396.831 465.143C397.183 464.59 397.324 463.945 397.231 463.31L396.565 458.659C396.691 458.723 396.793 458.822 396.857 458.941C397.314 460.206 396.857 457.255 396.857 457.255C398.739 451.687 400.218 446.01 401.283 440.262L408.085 445.673C408.085 445.673 408.222 445.517 408.46 445.226C410.126 448.705 413.1 455.824 412.434 461.038C411.521 468.193 420.208 461.879 419.299 457.666C418.561 454.259 421.865 439.815 423.152 434.413C423.291 433.83 423.189 433.22 422.865 432.702C422.542 432.185 422.021 431.797 421.403 431.614V431.614Z" fill="url(#paint1_linear)"/>
<path d="M350.315 314.753C350.315 314.753 343.833 313.725 334.223 305.703C326.619 299.357 316.362 300.605 312.407 301.405C312.272 301.432 312.15 301.496 312.056 301.589C311.962 301.682 311.901 301.799 311.881 301.925C311.862 302.05 311.884 302.178 311.946 302.292C312.008 302.405 312.106 302.498 312.227 302.559C313.826 303.364 316.304 304.54 317.465 304.674C317.465 304.674 315.07 306.955 317.616 308.175C317.92 308.313 318.261 308.37 318.599 308.34C318.937 308.31 319.259 308.194 319.53 308.006C320.754 307.183 324.156 309.052 329.087 310.022C329.087 310.022 348.308 328.33 352.778 325.226L350.315 314.753Z" fill="#FEC3BE"/>
<path d="M383.408 289.864C383.408 289.864 385.196 296.857 383.408 301.794L391.454 302.823L398.606 299.531V295.212C398.606 295.212 395.253 288.629 396.147 281.018L383.408 289.864Z" fill="#FEC3BE"/>
<path d="M406.19 441.456C406.19 441.456 412.021 451.947 411.107 458.941C410.194 465.935 418.706 459.764 417.812 455.65C417.089 452.323 420.315 438.21 421.573 432.96C421.709 432.393 421.612 431.799 421.3 431.294C420.987 430.789 420.482 430.409 419.882 430.228C417.195 429.414 412.696 428.417 410.437 429.941C407.099 432.2 406.19 441.456 406.19 441.456Z" fill="#8B416F"/>
<path d="M384.078 452.976C384.078 452.976 376.479 462.026 374.468 462.232C372.456 462.438 371.115 465.318 374.468 465.935C381.162 467.007 388.046 466.389 394.389 464.146C395.023 463.918 395.557 463.501 395.903 462.961C396.249 462.421 396.388 461.789 396.298 461.168L395.015 452.359L384.078 452.976Z" fill="#8B416F"/>
<path d="M371.562 356.918L364.274 357.812C365.274 365.647 365.245 373.564 364.187 381.392V409.564C364.187 409.564 364.046 412.046 369.643 415.654C375.512 419.41 381.169 423.44 386.59 427.728L406.871 443.898C406.871 443.898 414.917 434.847 413.799 429.499C413.799 429.499 400.389 425.591 398.601 419.214C397.576 415.565 392.377 412.506 388.121 410.583C385.445 409.387 383.295 407.385 382.026 404.909C380.758 402.433 380.448 399.632 381.148 396.971C381.397 396.047 381.781 395.158 382.29 394.328C385.866 388.569 391.007 375.61 391.007 375.61L381.173 358.358L371.562 356.918Z" fill="#4D4981"/>
<path opacity="0.05" d="M371.562 356.918L364.274 357.812C365.274 365.647 365.245 373.564 364.187 381.392V409.564C364.187 409.564 364.046 412.046 369.643 415.654C375.512 419.41 381.169 423.44 386.59 427.728L406.871 443.898C406.871 443.898 414.917 434.847 413.799 429.499C413.799 429.499 400.389 425.591 398.601 419.214C397.576 415.565 392.377 412.506 388.121 410.583C385.445 409.387 383.295 407.385 382.026 404.909C380.758 402.433 380.448 399.632 381.148 396.971C381.397 396.047 381.781 395.158 382.29 394.328C385.866 388.569 391.007 375.61 391.007 375.61L381.173 358.358L371.562 356.918Z" fill="black"/>
<path d="M382.29 453.606C382.29 453.606 395.477 455.663 395.924 456.897C396.371 458.131 395.924 455.252 395.924 455.252C395.924 455.252 403.523 434.064 401.754 415.35C399.986 396.636 403.989 384.289 403.989 384.289C403.989 384.289 408.683 370.301 406.001 362.279C403.319 354.257 375.158 357.754 375.158 357.754C375.158 357.754 384.992 378.941 384.768 389.02C384.768 389.02 385.886 419.464 387.897 422.961C387.878 422.943 384.749 452.77 382.29 453.606Z" fill="#4D4981"/>
<path d="M383.84 295.212C383.84 295.212 385.181 302.814 398.591 299.532L389.671 362.06C389.671 362.06 363.745 362.883 363.968 360.003L369.313 322.159L383.84 295.212Z" fill="white"/>
<path opacity="0.1" d="M384.19 294.8C382.444 296.383 380.169 297.377 377.733 297.622C375.508 297.779 373.345 298.37 371.387 299.357C369.089 300.542 366.529 302.264 365.751 304.361C364.187 308.475 354.353 315.263 349.883 313.823L351.447 326.165C351.447 326.165 364.187 325.548 366.422 321.023L362.627 365.065H365.98C365.98 365.065 367.768 353.134 369.109 350.666C370.45 348.198 373.132 334.621 373.355 331.33C373.579 328.039 376.931 309.114 379.837 305.841L384.21 296.07L384.19 294.8Z" fill="black"/>
<path opacity="0.1" d="M384.19 295.417C382.193 296.855 379.804 297.76 377.286 298.033C375.062 298.194 372.9 298.788 370.945 299.777C368.647 300.962 366.086 302.684 365.309 304.781C363.745 308.895 353.91 315.683 349.44 314.244L351.005 326.586C351.005 326.586 363.745 325.968 365.98 321.443L362.18 365.459H365.533C365.533 365.459 367.321 353.528 368.662 351.06C370.003 348.591 372.685 335.015 372.908 331.724C373.132 328.432 376.484 309.508 379.39 306.235L384.19 296.647V295.417Z" fill="black"/>
<path d="M384.19 295.006C382.193 296.444 379.804 297.349 377.286 297.622C375.061 297.779 372.898 298.371 370.94 299.357C368.642 300.542 366.082 302.264 365.304 304.361C363.74 308.475 353.906 315.263 349.436 313.823L351 326.165C351 326.165 363.74 325.548 365.975 321.023L362.18 365.065H365.533C365.533 365.065 367.321 353.135 368.662 350.666C370.003 348.198 372.685 334.622 372.908 331.33C373.132 328.039 376.484 309.115 379.39 305.841L384.195 296.276L384.19 295.006Z" fill="#FD6F8D"/>
<path opacity="0.1" d="M395.589 287.087C395.297 285.137 395.88 283.921 396.147 281.635L383.408 290.481C383.408 290.481 383.714 291.675 383.947 293.423C384.59 293.519 385.24 293.566 385.891 293.566C390.312 293.566 393.495 290.387 395.589 287.087Z" fill="black"/>
<path d="M385.866 292.954C392.532 292.954 397.935 287.98 397.935 281.846C397.935 275.711 392.532 270.738 385.866 270.738C379.201 270.738 373.797 275.711 373.797 281.846C373.797 287.98 379.201 292.954 385.866 292.954Z" fill="#FEC3BE"/>
<path opacity="0.1" d="M372.694 270.957C372.617 269.084 372.947 267.215 373.666 265.461C373.466 265.737 373.382 266.07 373.428 266.399C373.475 266.728 373.649 267.03 373.919 267.25C374.308 265.338 375.374 263.599 376.951 262.304C376.091 262.434 375.649 263.413 375.862 264.191C376.153 264.951 376.67 265.621 377.354 266.123C377.281 264.947 378.126 263.847 379.195 263.203C380.309 262.614 381.526 262.209 382.791 262.004C382.357 262.146 381.986 262.416 381.737 262.772C381.487 263.128 381.373 263.55 381.411 263.972C381.415 264.115 381.479 264.252 381.591 264.352C381.712 264.424 381.855 264.458 381.999 264.45C383.258 264.495 384.518 264.47 385.774 264.374C387.318 264.215 388.87 264.138 390.424 264.146C395.283 264.334 400.166 267.388 401.254 271.748C401.48 272.806 401.598 273.881 401.609 274.959L401.847 280.464C401.985 282.07 401.913 283.685 401.633 285.275C401.296 286.744 400.612 288.125 399.629 289.322C398.645 290.518 397.387 291.5 395.943 292.198C394.189 289.859 394.034 286.854 393.427 284.068C393.331 283.425 393.071 282.812 392.669 282.279C392.461 282.016 392.169 281.818 391.834 281.714C391.499 281.61 391.137 281.604 390.798 281.698C390.142 281.94 389.86 282.861 390.404 283.272C389.919 283.8 389.01 283.406 388.461 282.937C386.928 281.598 385.872 279.862 385.434 277.96C385.215 277.003 384.997 275.822 383.976 275.496C383.625 275.407 383.259 275.384 382.898 275.429C380.77 275.563 377.441 276.372 375.381 275.751C373.491 275.183 372.694 272.607 372.694 270.957Z" fill="black"/>
<path d="M372.918 270.751C372.84 268.878 373.171 267.009 373.89 265.255C373.69 265.531 373.606 265.865 373.652 266.193C373.698 266.522 373.873 266.824 374.142 267.044C374.531 265.133 375.598 263.393 377.174 262.098C376.314 262.228 375.872 263.207 376.086 263.985C376.376 264.745 376.893 265.415 377.577 265.917C377.505 264.741 378.35 263.641 379.419 262.997C380.533 262.408 381.749 262.003 383.014 261.799C382.581 261.94 382.21 262.21 381.96 262.566C381.711 262.922 381.596 263.344 381.634 263.766C381.638 263.91 381.703 264.046 381.814 264.146C381.936 264.218 382.078 264.252 382.222 264.245C383.481 264.289 384.742 264.264 385.998 264.169C387.541 264.009 389.094 263.933 390.647 263.941C395.506 264.129 400.389 267.183 401.478 271.543C401.703 272.601 401.822 273.675 401.832 274.753L402.07 280.258C402.209 281.864 402.137 283.48 401.857 285.07C401.52 286.538 400.836 287.919 399.852 289.116C398.869 290.313 397.61 291.295 396.167 291.992C394.413 289.653 394.257 286.648 393.65 283.862C393.554 283.22 393.295 282.607 392.892 282.074C392.684 281.81 392.393 281.613 392.058 281.509C391.722 281.404 391.36 281.399 391.022 281.492C390.366 281.734 390.084 282.655 390.628 283.066C390.142 283.594 389.233 283.201 388.684 282.731C387.151 281.392 386.096 279.657 385.657 277.754C385.439 276.797 385.22 275.617 384.2 275.29C383.849 275.201 383.482 275.178 383.121 275.223C380.993 275.357 377.665 276.167 375.605 275.545C373.715 274.973 372.918 272.401 372.918 270.751Z" fill="#784F69"/>
<path opacity="0.1" d="M348.857 313.828C348.857 313.828 347.069 321.43 350.422 326.17L352.322 326.027L351.287 313.953L348.857 313.828Z" fill="black"/>
<path d="M349.343 313.828C349.343 313.828 347.555 321.43 350.908 326.17L352.807 326.027L351.773 313.953L349.343 313.828Z" fill="#FD6F8D"/>
<path opacity="0.1" d="M397.377 293.07L411.793 304.486C411.793 304.486 420.286 312.508 416.71 325.468C416.71 325.468 415.145 344.392 413.357 345.215C413.357 345.215 407.099 356.734 406.652 367.636C406.652 367.636 398.271 352.106 394.471 361.568C390.672 371.03 381.839 372.367 381.839 372.367L386.756 316.399C386.756 316.399 399.165 296.549 397.377 293.07Z" fill="black"/>
<path d="M397.824 293.07L412.24 304.486C412.24 304.486 420.733 312.508 417.157 325.468C417.157 325.468 415.592 344.392 413.804 345.215C413.804 345.215 407.546 356.734 407.099 367.636C407.099 367.636 398.271 351.283 394.466 360.745C390.662 370.208 382.286 372.372 382.286 372.372L387.203 316.426C387.203 316.426 399.612 296.549 397.824 293.07Z" fill="#FD6F8D"/>
<path d="M404.417 341.289C404.417 341.289 407.993 339.026 413.804 345.197L399.5 369.058L394.695 362.382C394.695 362.382 404.864 343.963 404.417 341.289Z" fill="#FEC3BE"/>
<path opacity="0.1" d="M400.953 342.626C400.953 342.626 408.863 350.8 411.948 349.49L414.805 343.368L404.082 339.129L400.953 342.626Z" fill="black"/>
<path d="M400.953 342.214C400.953 342.214 408.863 350.389 411.948 349.079L414.805 342.957L404.082 338.717L400.953 342.214Z" fill="#FD6F8D"/>
<path opacity="0.1" d="M395.181 360.821C395.181 360.821 398.946 367.923 400.953 368.334L398.038 371.419L393.791 364.014L395.181 360.821Z" fill="black"/>
<path d="M394.957 361.041C394.957 361.041 398.723 368.142 400.729 368.553L397.814 371.639L393.558 364.22L394.957 361.041Z" fill="#4D4981"/>
<path opacity="0.1" d="M402.07 317.119C402.07 317.119 402.517 331.929 400.729 337.483Z" fill="black"/>
<path opacity="0.1" d="M365.863 319.999C365.863 319.999 368.545 319.176 368.545 317.119Z" fill="black"/>
<path d="M40.1769 322.476C40.1769 322.476 27.4373 346.731 35.804 375.435C44.1708 404.139 41.5131 438.487 33.1706 446.983" stroke="#535461" stroke-width="2" stroke-miterlimit="10"/>
<path d="M40.1769 325.714C42.117 325.714 43.6898 324.266 43.6898 322.481C43.6898 320.695 42.117 319.248 40.1769 319.248C38.2368 319.248 36.6641 320.695 36.6641 322.481C36.6641 324.266 38.2368 325.714 40.1769 325.714Z" fill="#8525EF"/>
<path d="M34.8809 338.078C34.8809 338.078 48.0869 340.269 51.5998 335.842" stroke="#535461" stroke-width="2" stroke-miterlimit="10"/>
<path d="M33.6273 345.121C33.6273 345.121 25.6833 337.032 26.1206 332.18" stroke="#535461" stroke-width="2" stroke-miterlimit="10"/>
<path d="M32.9519 359.94C32.9519 359.94 40.1768 361.693 46.7701 348.761" stroke="#535461" stroke-width="2" stroke-miterlimit="10"/>
<path d="M34.8809 370.717C34.8809 370.717 16.9036 360.07 19.0949 353.202" stroke="#535461" stroke-width="2" stroke-miterlimit="10"/>
<path d="M37.6892 382.903C37.6892 382.903 50.2831 372.618 48.9663 362.498" stroke="#535461" stroke-width="2" stroke-miterlimit="10"/>
<path d="M39.0594 390.067C39.0594 390.067 23.0256 385.944 23.5114 379.478" stroke="#535461" stroke-width="2" stroke-miterlimit="10"/>
<path d="M40.1769 398.603C40.1769 398.603 50.2782 389.991 51.5949 384.741" stroke="#535461" stroke-width="2" stroke-miterlimit="10"/>
<path d="M40.8814 413.248C40.8814 413.248 30.5177 402.114 30.0756 396.457" stroke="#535461" stroke-width="2" stroke-miterlimit="10"/>
<path d="M40.8813 422.465C40.8813 422.465 52.4792 410.606 53.3537 404.949" stroke="#535461" stroke-width="2" stroke-miterlimit="10"/>
<path d="M26.1206 336.222C28.0607 336.222 29.6335 334.775 29.6335 332.989C29.6335 331.204 28.0607 329.756 26.1206 329.756C24.1805 329.756 22.6077 331.204 22.6077 332.989C22.6077 334.775 24.1805 336.222 26.1206 336.222Z" fill="#8525EF"/>
<path d="M22.1705 382.711C24.1106 382.711 25.6833 381.263 25.6833 379.478C25.6833 377.692 24.1106 376.245 22.1705 376.245C20.2304 376.245 18.6576 377.692 18.6576 379.478C18.6576 381.263 20.2304 382.711 22.1705 382.711Z" fill="#8525EF"/>
<path d="M19.0948 356.435C21.0349 356.435 22.6077 354.987 22.6077 353.202C22.6077 351.416 21.0349 349.969 19.0948 349.969C17.1547 349.969 15.582 351.416 15.582 353.202C15.582 354.987 17.1547 356.435 19.0948 356.435Z" fill="#8525EF"/>
<path d="M51.5998 339.053C53.5399 339.053 55.1126 337.606 55.1126 335.82C55.1126 334.034 53.5399 332.587 51.5998 332.587C49.6597 332.587 48.0869 334.034 48.0869 335.82C48.0869 337.606 49.6597 339.053 51.5998 339.053Z" fill="#8525EF"/>
<path d="M51.5998 388.774C53.5399 388.774 55.1126 387.327 55.1126 385.541C55.1126 383.756 53.5399 382.308 51.5998 382.308C49.6597 382.308 48.0869 383.756 48.0869 385.541C48.0869 387.327 49.6597 388.774 51.5998 388.774Z" fill="#8525EF"/>
<path d="M45.8908 351.99C47.8309 351.99 49.4037 350.542 49.4037 348.757C49.4037 346.971 47.8309 345.524 45.8908 345.524C43.9507 345.524 42.3779 346.971 42.3779 348.757C42.3779 350.542 43.9507 351.99 45.8908 351.99Z" fill="#8525EF"/>
<path d="M52.9166 410.203C54.8567 410.203 56.4294 408.756 56.4294 406.97C56.4294 405.184 54.8567 403.737 52.9166 403.737C50.9765 403.737 49.4037 405.184 49.4037 406.97C49.4037 408.756 50.9765 410.203 52.9166 410.203Z" fill="#8525EF"/>
<path d="M29.1962 401.711C31.1363 401.711 32.709 400.264 32.709 398.478C32.709 396.693 31.1363 395.245 29.1962 395.245C27.2561 395.245 25.6833 396.693 25.6833 398.478C25.6833 400.264 27.2561 401.711 29.1962 401.711Z" fill="#8525EF"/>
<path d="M49.4036 365.731C51.3437 365.731 52.9165 364.284 52.9165 362.498C52.9165 360.713 51.3437 359.265 49.4036 359.265C47.4635 359.265 45.8907 360.713 45.8907 362.498C45.8907 364.284 47.4635 365.731 49.4036 365.731Z" fill="#8525EF"/>
</g>
<defs>
<linearGradient id="paint0_linear" x1="216.753" y1="447.511" x2="216.753" y2="283.956" gradientUnits="userSpaceOnUse">
<stop stop-color="#808080" stop-opacity="0.25"/>
<stop offset="0.54" stop-color="#808080" stop-opacity="0.12"/>
<stop offset="1" stop-color="#808080" stop-opacity="0.1"/>
</linearGradient>
<linearGradient id="paint1_linear" x1="99107.7" y1="135185" x2="99107.7" y2="36951.6" gradientUnits="userSpaceOnUse">
<stop stop-color="#808080" stop-opacity="0.25"/>
<stop offset="0.54" stop-color="#808080" stop-opacity="0.12"/>
<stop offset="1" stop-color="#808080" stop-opacity="0.1"/>
</linearGradient>
<clipPath id="clip0">
<rect width="463.524" height="245.884" fill="white" transform="translate(0 259.116)"/>
</clipPath>
</defs>
</svg>
